# xmcd
#
# Track frame offsets:
#	300
#	21320
#	49288
#	69157
#	89507
#
# Disc length: 1570 seconds
#
# Revision: 1
# Processed by: cddbd v1.5.2PL0 Copyright (c) Steve Scherf et al.
# Submitted via: audiograbber 1.83.01
#
DISCID=3f061e05
DTITLE=Briana Lee - An Angel Weeps
DYEAR=2006
DGENRE=Australian Country
TTITLE0=Just For The Moment
TTITLE1=An Angel Weeps
TTITLE2=You've Got Me
TTITLE3=All The Little Things
TTITLE4=The Line Dancers  Waltz
EXTD=
EXTT0=
EXTT1=
EXTT2=
EXTT3=
EXTT4=
PLAYORDER=
